<?xml version="1.0"?>
<svg xmlns="http://www.w3.org/2000/svg" viewBox="0 0 74 74" width="512" height="512"><g id="Numbers"><text transform="translate(31.995 -514.544)" font-size="18" fill="red" font-family="ArialMT, Arial">2<tspan x="-5.005" y="124">12</tspan><tspan x="-5.005" y="248">22</tspan><tspan x="-5.005" y="372">32</tspan><tspan x="-5.005" y="496">42</tspan><tspan x="-5.005" y="620">52</tspan><tspan x="-5.005" y="744">62</tspan><tspan x="-5.005" y="868">72</tspan><tspan x="-5.005" y="992">82</tspan><tspan x="-5.005" y="1116">92</tspan><tspan x="-10.011" y="1240">102</tspan><tspan x="-9.343" y="1364" letter-spacing="-0.074em">1</tspan><tspan x="-0.668" y="1364">12</tspan><tspan x="-10.011" y="1488">122</tspan><tspan x="-10.011" y="1612">132</tspan><tspan x="-10.011" y="1736">142</tspan><tspan x="-10.011" y="1860">152</tspan><tspan x="-10.011" y="1984">162</tspan><tspan x="-10.011" y="2108">172</tspan><tspan x="-10.011" y="2232">182</tspan><tspan x="-10.011" y="2356">192</tspan><tspan x="-10.011" y="2480">202</tspan><tspan x="-10.011" y="2604">212</tspan><tspan x="-10.011" y="2728">222</tspan><tspan x="-10.011" y="2852">232</tspan><tspan x="-10.011" y="2976">242</tspan><tspan x="-10.011" y="3100">252</tspan><tspan x="-10.011" y="3224">262</tspan><tspan x="-10.011" y="3348">272</tspan><tspan x="-10.011" y="3472">282</tspan><tspan x="-10.011" y="3596">292</tspan></text></g><g id="_2_PT" data-name="2 PT"><path d="M37,70a1,1,0,0,1-.465-.115C23.852,63.223,2,37.877,2,23.68A19.663,19.663,0,0,1,37,11.371,19.663,19.663,0,0,1,72,23.68c0,14.2-21.852,39.543-34.535,46.205A1,1,0,0,1,37,70ZM21.667,6.013A17.687,17.687,0,0,0,4,23.68c0,13.149,20.923,37.5,33,44.184C49.077,61.18,70,36.829,70,23.68A17.664,17.664,0,0,0,37.821,13.611a1.037,1.037,0,0,1-1.643,0A17.686,17.686,0,0,0,21.667,6.013Z"/></g></svg>
